<svg xmlns="http://www.w3.org/2000/svg" viewBox="0 0 1600 900" preserveAspectRatio="xMidYMid slice">
<defs>
  <linearGradient id="g" x1="0" y1="0" x2="1" y2="1">
    <stop offset="0" stop-color="#8a3a3a"/><stop offset="1" stop-color="#3a1414"/>
  </linearGradient>
  <radialGradient id="vignette" cx="0.5" cy="0.5" r="0.7">
    <stop offset="0.5" stop-color="rgba(0,0,0,0)"/><stop offset="1" stop-color="rgba(0,0,0,0.55)"/>
  </radialGradient>
</defs>
<rect width="1600" height="900" fill="url(#g)"/>
<path d="M -50 57 Q 800 64 1650 57" fill="none" stroke="#c9a44a" stroke-opacity="0.04" stroke-width="1"/><path d="M -50 121 Q 800 126 1650 121" fill="none" stroke="#c9a44a" stroke-opacity="0.08" stroke-width="2"/><path d="M -50 175 Q 800 164 1650 175" fill="none" stroke="#c9a44a" stroke-opacity="0.12" stroke-width="3"/><path d="M -50 240 Q 800 233 1650 240" fill="none" stroke="#c9a44a" stroke-opacity="0.16" stroke-width="1"/><path d="M -50 295 Q 800 282 1650 295" fill="none" stroke="#c9a44a" stroke-opacity="0.04" stroke-width="2"/><path d="M -50 352 Q 800 361 1650 352" fill="none" stroke="#c9a44a" stroke-opacity="0.08" stroke-width="3"/><path d="M -50 419 Q 800 418 1650 419" fill="none" stroke="#c9a44a" stroke-opacity="0.12" stroke-width="1"/><path d="M -50 474 Q 800 485 1650 474" fill="none" stroke="#c9a44a" stroke-opacity="0.16" stroke-width="2"/><path d="M -50 532 Q 800 539 1650 532" fill="none" stroke="#c9a44a" stroke-opacity="0.04" stroke-width="3"/><path d="M -50 591 Q 800 596 1650 591" fill="none" stroke="#c9a44a" stroke-opacity="0.08" stroke-width="1"/><path d="M -50 658 Q 800 663 1650 658" fill="none" stroke="#c9a44a" stroke-opacity="0.12" stroke-width="2"/><path d="M -50 722 Q 800 727 1650 722" fill="none" stroke="#c9a44a" stroke-opacity="0.16" stroke-width="3"/><path d="M -50 784 Q 800 797 1650 784" fill="none" stroke="#c9a44a" stroke-opacity="0.04" stroke-width="1"/><path d="M -50 837 Q 800 828 1650 837" fill="none" stroke="#c9a44a" stroke-opacity="0.08" stroke-width="2"/>
<rect width="1600" height="900" fill="url(#vignette)"/>
<g font-family="Fraunces, serif" fill="#c9a44a" opacity="0.92">
  <text x="80" y="780" font-size="120" font-weight="500" letter-spacing="-3">Vietnam</text>
  <text x="80" y="120" font-size="22" letter-spacing="6" font-family="JetBrains Mono, monospace" fill-opacity="0.7">PILLAR · MISBAH · EXPLORATION</text>
</g>
</svg>