<svg xmlns="http://www.w3.org/2000/svg" viewBox="0 0 1600 900" preserveAspectRatio="xMidYMid slice">
<defs>
  <linearGradient id="g" x1="0" y1="0" x2="1" y2="1">
    <stop offset="0" stop-color="#2c4a6e"/><stop offset="1" stop-color="#0e1f38"/>
  </linearGradient>
  <radialGradient id="vignette" cx="0.5" cy="0.5" r="0.7">
    <stop offset="0.5" stop-color="rgba(0,0,0,0)"/><stop offset="1" stop-color="rgba(0,0,0,0.55)"/>
  </radialGradient>
</defs>
<rect width="1600" height="900" fill="url(#g)"/>
<path d="M -50 57 Q 800 48 1650 57" fill="none" stroke="#c9a44a" stroke-opacity="0.04" stroke-width="1"/><path d="M -50 113 Q 800 106 1650 113" fill="none" stroke="#c9a44a" stroke-opacity="0.08" stroke-width="2"/><path d="M -50 179 Q 800 182 1650 179" fill="none" stroke="#c9a44a" stroke-opacity="0.12" stroke-width="3"/><path d="M -50 234 Q 800 231 1650 234" fill="none" stroke="#c9a44a" stroke-opacity="0.16" stroke-width="1"/><path d="M -50 292 Q 800 279 1650 292" fill="none" stroke="#c9a44a" stroke-opacity="0.04" stroke-width="2"/><path d="M -50 359 Q 800 344 1650 359" fill="none" stroke="#c9a44a" stroke-opacity="0.08" stroke-width="3"/><path d="M -50 422 Q 800 431 1650 422" fill="none" stroke="#c9a44a" stroke-opacity="0.12" stroke-width="1"/><path d="M -50 476 Q 800 475 1650 476" fill="none" stroke="#c9a44a" stroke-opacity="0.16" stroke-width="2"/><path d="M -50 533 Q 800 528 1650 533" fill="none" stroke="#c9a44a" stroke-opacity="0.04" stroke-width="3"/><path d="M -50 591 Q 800 594 1650 591" fill="none" stroke="#c9a44a" stroke-opacity="0.08" stroke-width="1"/><path d="M -50 650 Q 800 639 1650 650" fill="none" stroke="#c9a44a" stroke-opacity="0.12" stroke-width="2"/><path d="M -50 710 Q 800 719 1650 710" fill="none" stroke="#c9a44a" stroke-opacity="0.16" stroke-width="3"/><path d="M -50 778 Q 800 785 1650 778" fill="none" stroke="#c9a44a" stroke-opacity="0.04" stroke-width="1"/><path d="M -50 842 Q 800 839 1650 842" fill="none" stroke="#c9a44a" stroke-opacity="0.08" stroke-width="2"/>
<rect width="1600" height="900" fill="url(#vignette)"/>
<g font-family="Fraunces, serif" fill="#c9a44a" opacity="0.92">
  <text x="80" y="780" font-size="120" font-weight="500" letter-spacing="-3">Cartography &amp; Exploration</text>
  <text x="80" y="120" font-size="22" letter-spacing="6" font-family="JetBrains Mono, monospace" fill-opacity="0.7">PILLAR · MISBAH · EXPLORATION</text>
</g>
</svg>