<svg xmlns="http://www.w3.org/2000/svg" viewBox="0 0 1600 900" preserveAspectRatio="xMidYMid slice">
<defs>
  <linearGradient id="g" x1="0" y1="0" x2="1" y2="1">
    <stop offset="0" stop-color="#3d6e6e"/><stop offset="1" stop-color="#1f3838"/>
  </linearGradient>
  <radialGradient id="vignette" cx="0.5" cy="0.5" r="0.7">
    <stop offset="0.5" stop-color="rgba(0,0,0,0)"/><stop offset="1" stop-color="rgba(0,0,0,0.55)"/>
  </radialGradient>
</defs>
<rect width="1600" height="900" fill="url(#g)"/>
<path d="M -50 63 Q 800 76 1650 63" fill="none" stroke="#c9a44a" stroke-opacity="0.04" stroke-width="1"/><path d="M -50 124 Q 800 123 1650 124" fill="none" stroke="#c9a44a" stroke-opacity="0.08" stroke-width="2"/><path d="M -50 185 Q 800 188 1650 185" fill="none" stroke="#c9a44a" stroke-opacity="0.12" stroke-width="3"/><path d="M -50 237 Q 800 226 1650 237" fill="none" stroke="#c9a44a" stroke-opacity="0.16" stroke-width="1"/><path d="M -50 293 Q 800 286 1650 293" fill="none" stroke="#c9a44a" stroke-opacity="0.04" stroke-width="2"/><path d="M -50 359 Q 800 346 1650 359" fill="none" stroke="#c9a44a" stroke-opacity="0.08" stroke-width="3"/><path d="M -50 414 Q 800 407 1650 414" fill="none" stroke="#c9a44a" stroke-opacity="0.12" stroke-width="1"/><path d="M -50 472 Q 800 483 1650 472" fill="none" stroke="#c9a44a" stroke-opacity="0.16" stroke-width="2"/><path d="M -50 539 Q 800 554 1650 539" fill="none" stroke="#c9a44a" stroke-opacity="0.04" stroke-width="3"/><path d="M -50 594 Q 800 585 1650 594" fill="none" stroke="#c9a44a" stroke-opacity="0.08" stroke-width="1"/><path d="M -50 652 Q 800 637 1650 652" fill="none" stroke="#c9a44a" stroke-opacity="0.12" stroke-width="2"/><path d="M -50 711 Q 800 704 1650 711" fill="none" stroke="#c9a44a" stroke-opacity="0.16" stroke-width="3"/><path d="M -50 778 Q 800 765 1650 778" fill="none" stroke="#c9a44a" stroke-opacity="0.04" stroke-width="1"/><path d="M -50 834 Q 800 819 1650 834" fill="none" stroke="#c9a44a" stroke-opacity="0.08" stroke-width="2"/>
<rect width="1600" height="900" fill="url(#vignette)"/>
<g font-family="Fraunces, serif" fill="#c9a44a" opacity="0.92">
  <text x="80" y="780" font-size="120" font-weight="500" letter-spacing="-3">Tea</text>
  <text x="80" y="120" font-size="22" letter-spacing="6" font-family="JetBrains Mono, monospace" fill-opacity="0.7">PILLAR · MISBAH · EXPLORATION</text>
</g>
</svg>